<?xml version="1.0" encoding="UTF-8" standalone="no"?>
<!-- Created with Inkscape (http://www.inkscape.org/) -->

<svg
   width="32"
   height="32"
   viewBox="0 0 32 32"
   version="1.1"
   id="svg5780"
   inkscape:version="1.3.2 (091e20ef0f, 2023-11-25, custom)"
   sodipodi:docname="buttondown.svg"
   xmlns:inkscape="http://www.inkscape.org/namespaces/inkscape"
   xmlns:sodipodi="http://sodipodi.sourceforge.net/DTD/sodipodi-0.dtd"
   xmlns="http://www.w3.org/2000/svg"
   xmlns:svg="http://www.w3.org/2000/svg"
   xmlns:rdf="http://www.w3.org/1999/02/22-rdf-syntax-ns#"
   xmlns:cc="http://creativecommons.org/ns#"
   xmlns:dc="http://purl.org/dc/elements/1.1/">
  <defs
     id="defs5774" />
  <sodipodi:namedview
     id="base"
     pagecolor="#d1d1d1"
     bordercolor="#666666"
     borderopacity="1.0"
     inkscape:pageopacity="0.0"
     inkscape:pageshadow="2"
     inkscape:zoom="11.313709"
     inkscape:cx="8.6620577"
     inkscape:cy="15.909902"
     inkscape:document-units="px"
     inkscape:current-layer="layer1"
     showgrid="true"
     units="px"
     inkscape:pagecheckerboard="true"
     inkscape:showpageshadow="false"
     inkscape:snap-page="true"
     inkscape:window-width="1920"
     inkscape:window-height="1014"
     inkscape:window-x="0"
     inkscape:window-y="0"
     inkscape:window-maximized="1"
     showguides="true"
     inkscape:guide-bbox="true"
     inkscape:snap-bbox="true"
     inkscape:bbox-paths="true"
     inkscape:snap-nodes="false"
     inkscape:snap-grids="true"
     inkscape:bbox-nodes="true"
     inkscape:snap-global="true"
     fit-margin-top="0"
     fit-margin-left="0"
     fit-margin-right="0"
     fit-margin-bottom="0"
     inkscape:deskcolor="#d1d1d1">
    <inkscape:grid
       type="xygrid"
       id="grid832"
       originx="0"
       originy="0"
       spacingy="1"
       spacingx="1"
       units="px"
       visible="true" />
    <sodipodi:guide
       position="-1,16"
       orientation="0,-1"
       id="guide1"
       inkscape:locked="false" />
    <sodipodi:guide
       position="16,12"
       orientation="1,0"
       id="guide2"
       inkscape:locked="false" />
  </sodipodi:namedview>
  <metadata
     id="metadata5777">
    <rdf:RDF>
      <cc:Work
         rdf:about="">
        <dc:format>image/svg+xml</dc:format>
        <dc:type
           rdf:resource="http://purl.org/dc/dcmitype/StillImage" />
      </cc:Work>
    </rdf:RDF>
  </metadata>
  <g
     inkscape:label="Layer 1"
     inkscape:groupmode="layer"
     id="layer1"
     transform="translate(63.000014,-290.64995)">
    <path
       id="path1"
       style="opacity:1;fill:#828282;fill-opacity:0.62546998;stroke-width:1.5;stroke-linecap:round;stroke-linejoin:round;stroke-opacity:0.12;paint-order:stroke fill markers"
       d="M -47.000014 292.64995 A 14 14 0 0 0 -61.000014 306.64995 A 14 14 0 0 0 -47.000014 320.64995 A 14 14 0 0 0 -33.000014 306.64995 A 14 14 0 0 0 -47.000014 292.64995 z M -45.095717 299.15386 A 1.5 1.5 0 0 1 -44.705092 299.17925 A 1.5 1.5 0 0 1 -43.751967 299.81792 L -39.751967 305.81792 A 1.50015 1.50015 0 0 1 -39.730483 305.86089 A 1.50015 1.50015 0 0 1 -39.599623 306.12065 A 1.50015 1.50015 0 0 1 -39.589858 306.13823 A 1.50015 1.50015 0 0 1 -39.587905 306.14409 A 1.50015 1.50015 0 0 1 -39.515639 306.4605 A 1.50015 1.50015 0 0 1 -39.50978 306.51518 A 1.50015 1.50015 0 0 1 -39.513686 306.84722 A 1.50015 1.50015 0 0 1 -39.513686 306.84917 A 1.50015 1.50015 0 0 1 -39.589858 307.148 A 1.50015 1.50015 0 0 1 -39.619155 307.22612 A 1.50015 1.50015 0 0 1 -39.751967 307.48198 L -39.771498 307.51128 L -43.751967 313.48198 A 1.5 1.5 0 0 1 -45.832045 313.898 A 1.5 1.5 0 0 1 -46.248061 311.81792 L -43.802748 308.14995 L -53.000014 308.14995 A 1.5 1.5 0 0 1 -53.507827 308.05034 A 1.5 1.5 0 0 1 -53.632827 307.99761 A 1.5 1.5 0 0 1 -54.060561 307.7105 A 1.5 1.5 0 0 1 -54.34767 307.28276 A 1.5 1.5 0 0 1 -54.400405 307.15776 A 1.5 1.5 0 0 1 -54.500014 306.64995 A 1.5 1.5 0 0 1 -54.400405 306.14214 A 1.5 1.5 0 0 1 -54.34767 306.01714 A 1.5 1.5 0 0 1 -54.060561 305.5894 A 1.5 1.5 0 0 1 -53.632827 305.30229 A 1.5 1.5 0 0 1 -53.507827 305.24956 A 1.5 1.5 0 0 1 -53.000014 305.14995 L -43.802748 305.14995 L -46.248061 301.48198 A 1.5 1.5 0 0 1 -45.832045 299.4019 A 1.5 1.5 0 0 1 -45.095717 299.15386 z " />
  </g>
</svg>
